<svg width="40" height="40" viewBox="0 0 40 40" fill="none" xmlns="http://www.w3.org/2000/svg">
<path d="M20 7.65843C18.1841 5.98861 15.8071 5.06185 13.34 5.06177C12.0343 5.06313 10.7417 5.3227 9.53661 5.82555C8.33155 6.3284 7.23783 7.06459 6.31838 7.99177C2.39672 11.9301 2.39838 18.0901 6.32172 22.0118L18.5417 34.2318C18.825 34.7301 19.3717 35.0518 20 35.0518C20.258 35.0493 20.5119 34.9863 20.7411 34.8679C20.9704 34.7495 21.1686 34.579 21.32 34.3701L33.6784 22.0118C37.6017 18.0884 37.6017 11.9301 33.675 7.9851C32.7561 7.05963 31.6632 6.32493 30.4593 5.82324C29.2555 5.32155 27.9643 5.06277 26.66 5.06177C24.1931 5.06217 21.8162 5.98889 20 7.65843ZM31.3184 10.3418C33.9234 12.9601 33.925 17.0501 31.3217 19.6551L20 30.9768L8.67838 19.6551C6.07505 17.0501 6.07672 12.9601 8.67505 10.3484C9.94172 9.08843 11.5984 8.3951 13.34 8.3951C15.0817 8.3951 16.7317 9.08843 17.9884 10.3451L18.8217 11.1784C18.9764 11.3333 19.16 11.4562 19.3622 11.5401C19.5644 11.6239 19.7812 11.6671 20 11.6671C20.2189 11.6671 20.4357 11.6239 20.6379 11.5401C20.8401 11.4562 21.0237 11.3333 21.1784 11.1784L22.0117 10.3451C24.5317 7.8301 28.8017 7.83677 31.3184 10.3418Z" fill="#3D3D3D"/>
</svg>
