<svg width="40" height="40" viewBox="0 0 40 40" fill="none" xmlns="http://www.w3.org/2000/svg">
<path d="M31.705 28.2949C30.9245 27.5472 30.1647 26.778 29.4267 25.9883C28.8067 25.3583 28.4334 24.8999 28.4334 24.8999L23.7667 22.6716C25.635 20.5526 26.6662 17.8249 26.6667 14.9999C26.6667 8.56825 21.4334 3.33325 15 3.33325C8.56671 3.33325 3.33337 8.56825 3.33337 14.9999C3.33337 21.4316 8.56671 26.6666 15 26.6666C17.9384 26.6666 20.6167 25.5666 22.6717 23.7682L24.9 28.4349C24.9 28.4349 25.3584 28.8082 25.9884 29.4282C26.6334 30.0332 27.4817 30.8516 28.295 31.7066L30.5584 34.0266L31.565 35.1032L35.1 31.5682L34.0234 30.5616C33.3917 29.9416 32.5484 29.1182 31.705 28.2949V28.2949ZM15 23.3333C10.405 23.3333 6.66671 19.5949 6.66671 14.9999C6.66671 10.4049 10.405 6.66658 15 6.66658C19.595 6.66658 23.3334 10.4049 23.3334 14.9999C23.3334 19.5949 19.595 23.3333 15 23.3333Z" fill="#0013C2"/>
</svg>
