<svg width="40" height="40" viewBox="0 0 40 40" fill="none" xmlns="http://www.w3.org/2000/svg">
<path d="M10.86 23.8716L8.37663 34.6249C8.29973 34.9505 8.32282 35.2918 8.44287 35.6041C8.56292 35.9164 8.77436 36.1852 9.04958 36.3754C9.32479 36.5657 9.65098 36.6685 9.98555 36.6705C10.3201 36.6725 10.6475 36.5736 10.925 36.3866L20 30.3366L29.075 36.3866C29.3589 36.5751 29.6937 36.6721 30.0343 36.6646C30.375 36.6572 30.7053 36.5456 30.9806 36.3448C31.256 36.144 31.4633 35.8638 31.5746 35.5417C31.6859 35.2196 31.6959 34.8712 31.6033 34.5433L28.555 23.8766L36.115 17.0733C36.3571 16.8552 36.53 16.571 36.6123 16.2558C36.6946 15.9405 36.6828 15.6081 36.5781 15.2995C36.4735 14.9909 36.2807 14.7198 36.0236 14.5196C35.7665 14.3195 35.4564 14.199 35.1316 14.1733L25.63 13.4166L21.5183 4.31492C21.3872 4.02185 21.1741 3.77298 20.9046 3.59836C20.6352 3.42373 20.321 3.33081 20 3.33081C19.6789 3.33081 19.3647 3.42373 19.0953 3.59836C18.8259 3.77298 18.6127 4.02185 18.4816 4.31492L14.37 13.4166L4.8683 14.1716C4.54905 14.1969 4.24386 14.3136 3.98922 14.5078C3.73458 14.702 3.54128 14.9655 3.43245 15.2666C3.32362 15.5678 3.30386 15.894 3.37554 16.2061C3.44722 16.5182 3.6073 16.8031 3.83663 17.0266L10.86 23.8716ZM15.615 16.6616C15.9125 16.6382 16.1982 16.5351 16.4421 16.3633C16.6861 16.1914 16.8794 15.9571 17.0016 15.6849L20 9.04992L22.9983 15.6849C23.1206 15.9571 23.3138 16.1914 23.5578 16.3633C23.8018 16.5351 24.0875 16.6382 24.385 16.6616L31.005 17.1866L25.5533 22.0933C25.08 22.5199 24.8916 23.1766 25.065 23.7899L27.1533 31.0983L20.9266 26.9466C20.6533 26.7632 20.3316 26.6652 20.0025 26.6652C19.6733 26.6652 19.3516 26.7632 19.0783 26.9466L12.5716 31.2849L14.3216 23.7083C14.3858 23.4296 14.3772 23.1391 14.2966 22.8647C14.2161 22.5904 14.0663 22.3413 13.8616 22.1416L8.7983 17.2049L15.615 16.6616Z" fill="#3D3D3D"/>
</svg>
