<svg width="40" height="40" viewBox="0 0 40 40" fill="none" xmlns="http://www.w3.org/2000/svg">
<path d="M36.2384 20.5516L21.2383 3.88492C20.6067 3.18159 19.3933 3.18159 18.7617 3.88492L3.76168 20.5516C3.54577 20.7909 3.40405 21.0878 3.35375 21.4062C3.30345 21.7246 3.34674 22.0507 3.47835 22.3449C3.74501 22.9466 4.34168 23.3333 5.00001 23.3333H8.33335V34.9999C8.33335 35.4419 8.50894 35.8659 8.8215 36.1784C9.13406 36.491 9.55799 36.6666 10 36.6666H15C15.442 36.6666 15.866 36.491 16.1785 36.1784C16.4911 35.8659 16.6667 35.4419 16.6667 34.9999V28.3333H23.3333V34.9999C23.3333 35.4419 23.5089 35.8659 23.8215 36.1784C24.1341 36.491 24.558 36.6666 25 36.6666H30C30.442 36.6666 30.866 36.491 31.1785 36.1784C31.4911 35.8659 31.6667 35.4419 31.6667 34.9999V23.3333H35C35.3228 23.3346 35.639 23.2421 35.9101 23.0668C36.1812 22.8916 36.3954 22.6413 36.5267 22.3464C36.6579 22.0515 36.7006 21.7248 36.6494 21.4061C36.5982 21.0874 36.4554 20.7905 36.2384 20.5516Z" fill="#2B8800"/>
</svg>
