<svg width="30" height="26" viewBox="0 0 30 26" fill="none" xmlns="http://www.w3.org/2000/svg">
<path d="M27.1875 0H2.8125C1.25977 0 0 1.24777 0 2.78571V23.2143C0 24.7522 1.25977 26 2.8125 26H27.1875C28.7402 26 30 24.7522 30 23.2143V2.78571C30 1.24777 28.7402 0 27.1875 0ZM22.2891 16.8594C22.5703 17.1379 22.5703 17.5906 22.2891 17.8692L19.916 20.2196C19.6348 20.4982 19.1777 20.4982 18.8965 20.2196L15 16.3254L11.1035 20.2196C10.8223 20.4982 10.3652 20.4982 10.084 20.2196L7.71094 17.8692C7.42969 17.5906 7.42969 17.1379 7.71094 16.8594L11.6426 13L7.71094 9.14062C7.42969 8.86205 7.42969 8.40938 7.71094 8.1308L10.084 5.78036C10.3652 5.50179 10.8223 5.50179 11.1035 5.78036L15 9.67455L18.8965 5.78036C19.1777 5.50179 19.6348 5.50179 19.916 5.78036L22.2891 8.1308C22.5703 8.40938 22.5703 8.86205 22.2891 9.14062L18.3574 13L22.2891 16.8594Z" fill="black"/>
</svg>
