<svg width="30" height="26" viewBox="0 0 30 26" fill="none" xmlns="http://www.w3.org/2000/svg">
<g clip-path="url(#clip0_57083_1326)">
<path d="M27.1875 -0.125H2.8125C1.25977 -0.125 0 1.13477 0 2.6875V23.3125C0 24.8652 1.25977 26.125 2.8125 26.125H27.1875C28.7402 26.125 30 24.8652 30 23.3125V2.6875C30 1.13477 28.7402 -0.125 27.1875 -0.125ZM22.2891 16.8965C22.5703 17.1777 22.5703 17.6348 22.2891 17.916L19.916 20.2891C19.6348 20.5703 19.1777 20.5703 18.8965 20.2891L15 16.3574L11.1035 20.2891C10.8223 20.5703 10.3652 20.5703 10.084 20.2891L7.71094 17.916C7.42969 17.6348 7.42969 17.1777 7.71094 16.8965L11.6426 13L7.71094 9.10352C7.42969 8.82227 7.42969 8.36524 7.71094 8.08399L10.084 5.71094C10.3652 5.42969 10.8223 5.42969 11.1035 5.71094L15 9.64258L18.8965 5.71094C19.1777 5.42969 19.6348 5.42969 19.916 5.71094L22.2891 8.08399C22.5703 8.36524 22.5703 8.82227 22.2891 9.10352L18.3574 13L22.2891 16.8965Z" fill="#D90062"/>
</g>
<rect x="0.25" y="0.25" width="29.5" height="25.5" rx="2.75" stroke="black" stroke-width="0.5"/>
<defs>
<clipPath id="clip0_57083_1326">
<rect width="30" height="26" rx="3" fill="white"/>
</clipPath>
</defs>
</svg>
