<svg width="40" height="40" viewBox="0 0 40 40" fill="none" xmlns="http://www.w3.org/2000/svg">
<path d="M40 20C40 31.0457 31.0457 40 20 40C8.95431 40 0 31.0457 0 20C0 8.9543 8.95431 0 20 0C31.0457 0 40 8.9543 40 20Z" fill="#00BAAF"/>
<path d="M10.42 25V14.35H14.83C15.29 14.35 15.71 14.445 16.09 14.635C16.48 14.825 16.815 15.085 17.095 15.415C17.375 15.735 17.595 16.095 17.755 16.495C17.915 16.885 17.995 17.285 17.995 17.695C17.995 18.275 17.865 18.825 17.605 19.345C17.355 19.855 17 20.27 16.54 20.59C16.08 20.91 15.54 21.07 14.92 21.07H11.47V25H10.42ZM11.47 20.14H14.875C15.295 20.14 15.66 20.025 15.97 19.795C16.28 19.565 16.52 19.265 16.69 18.895C16.86 18.525 16.945 18.125 16.945 17.695C16.945 17.255 16.845 16.85 16.645 16.48C16.445 16.11 16.18 15.82 15.85 15.61C15.53 15.39 15.175 15.28 14.785 15.28H11.47V20.14ZM19.541 25V17.185H20.561V25H19.541ZM19.541 15.55V14.05H20.561V15.55H19.541ZM26.1976 25.15C25.6276 25.15 25.1026 25.045 24.6226 24.835C24.1526 24.615 23.7376 24.315 23.3776 23.935C23.0276 23.555 22.7526 23.12 22.5526 22.63C22.3626 22.14 22.2676 21.62 22.2676 21.07C22.2676 20.33 22.4326 19.655 22.7626 19.045C23.0926 18.435 23.5526 17.95 24.1426 17.59C24.7326 17.23 25.4126 17.05 26.1826 17.05C26.9126 17.05 27.5576 17.22 28.1176 17.56C28.6776 17.89 29.0926 18.34 29.3626 18.91L28.3726 19.225C28.1526 18.825 27.8426 18.515 27.4426 18.295C27.0526 18.065 26.6176 17.95 26.1376 17.95C25.6176 17.95 25.1426 18.085 24.7126 18.355C24.2826 18.625 23.9376 18.995 23.6776 19.465C23.4276 19.935 23.3026 20.47 23.3026 21.07C23.3026 21.66 23.4326 22.195 23.6926 22.675C23.9526 23.155 24.2976 23.54 24.7276 23.83C25.1576 24.11 25.6326 24.25 26.1526 24.25C26.4926 24.25 26.8176 24.19 27.1276 24.07C27.4476 23.95 27.7226 23.79 27.9526 23.59C28.1926 23.38 28.3526 23.155 28.4326 22.915L29.4376 23.215C29.2976 23.585 29.0626 23.92 28.7326 24.22C28.4126 24.51 28.0326 24.74 27.5926 24.91C27.1626 25.07 26.6976 25.15 26.1976 25.15Z" fill="white"/>
</svg>
